<mxfile host="app.diagrams.net" modified="2021-12-02T10:03:08.612Z" agent="5.0 (Macintosh; Intel Mac OS X 10_12_6) AppleWebKit/537.36 (KHTML, like Gecko) Chrome/96.0.4664.55 Safari/537.36" etag="YsdiWr8K1I_eVGW6PtfO" version="15.7.0" type="github" pages="3">
  <diagram id="CHwzUmkxaitqvtWPKl4Z" name="第 1 页">
    <mxGraphModel dx="946" dy="687" grid="1" gridSize="10" guides="1" tooltips="1" connect="1" arrows="1" fold="1" page="1" pageScale="1" pageWidth="827" pageHeight="1169" math="0" shadow="0">
      <root>
        <mxCell id="0" />
        <mxCell id="1" parent="0" />
        <mxCell id="O-b6yxpCKCsHz4nW2WA4-1" value="order-center" style="shape=cylinder3;whiteSpace=wrap;html=1;boundedLbl=1;backgroundOutline=1;size=15;fillColor=#dae8fc;strokeColor=#6c8ebf;" vertex="1" parent="1">
          <mxGeometry x="500" y="545" width="60" height="80" as="geometry" />
        </mxCell>
        <mxCell id="O-b6yxpCKCsHz4nW2WA4-4" style="rounded=0;orthogonalLoop=1;jettySize=auto;html=1;exitX=1;exitY=1;exitDx=0;exitDy=0;entryX=0;entryY=0;entryDx=0;entryDy=15;entryPerimeter=0;" edge="1" parent="1" source="O-b6yxpCKCsHz4nW2WA4-2" target="O-b6yxpCKCsHz4nW2WA4-1">
          <mxGeometry relative="1" as="geometry" />
        </mxCell>
        <mxCell id="O-b6yxpCKCsHz4nW2WA4-14" value="操作" style="edgeLabel;html=1;align=center;verticalAlign=middle;resizable=0;points=[];" vertex="1" connectable="0" parent="O-b6yxpCKCsHz4nW2WA4-4">
          <mxGeometry x="-0.2692" relative="1" as="geometry">
            <mxPoint as="offset" />
          </mxGeometry>
        </mxCell>
        <mxCell id="O-b6yxpCKCsHz4nW2WA4-2" value="聚合接单" style="rounded=1;whiteSpace=wrap;html=1;fillColor=#d5e8d4;strokeColor=#82b366;" vertex="1" parent="1">
          <mxGeometry x="290" y="270" width="120" height="60" as="geometry" />
        </mxCell>
        <mxCell id="O-b6yxpCKCsHz4nW2WA4-5" style="edgeStyle=none;rounded=0;orthogonalLoop=1;jettySize=auto;html=1;exitX=0;exitY=1;exitDx=0;exitDy=0;entryX=1;entryY=0;entryDx=0;entryDy=15;entryPerimeter=0;" edge="1" parent="1" source="O-b6yxpCKCsHz4nW2WA4-3" target="O-b6yxpCKCsHz4nW2WA4-1">
          <mxGeometry relative="1" as="geometry" />
        </mxCell>
        <mxCell id="O-b6yxpCKCsHz4nW2WA4-15" value="查询 &amp;amp; 操作" style="edgeLabel;html=1;align=center;verticalAlign=middle;resizable=0;points=[];" vertex="1" connectable="0" parent="O-b6yxpCKCsHz4nW2WA4-5">
          <mxGeometry x="-0.1384" relative="1" as="geometry">
            <mxPoint as="offset" />
          </mxGeometry>
        </mxCell>
        <mxCell id="O-b6yxpCKCsHz4nW2WA4-3" value="餐饮1.0" style="rounded=1;whiteSpace=wrap;html=1;fillColor=#ffe6cc;strokeColor=#d79b00;" vertex="1" parent="1">
          <mxGeometry x="650" y="270" width="120" height="60" as="geometry" />
        </mxCell>
        <mxCell id="O-b6yxpCKCsHz4nW2WA4-13" style="edgeStyle=none;rounded=0;orthogonalLoop=1;jettySize=auto;html=1;exitX=0.5;exitY=1;exitDx=0;exitDy=0;entryX=0.25;entryY=0;entryDx=0;entryDy=0;" edge="1" parent="1" source="O-b6yxpCKCsHz4nW2WA4-6" target="O-b6yxpCKCsHz4nW2WA4-2">
          <mxGeometry relative="1" as="geometry" />
        </mxCell>
        <mxCell id="O-b6yxpCKCsHz4nW2WA4-6" value="美团" style="rounded=1;whiteSpace=wrap;html=1;fillColor=#ffcc99;strokeColor=#36393d;" vertex="1" parent="1">
          <mxGeometry x="20" y="30" width="120" height="60" as="geometry" />
        </mxCell>
        <mxCell id="O-b6yxpCKCsHz4nW2WA4-12" style="edgeStyle=none;rounded=0;orthogonalLoop=1;jettySize=auto;html=1;exitX=0.5;exitY=1;exitDx=0;exitDy=0;entryX=0.5;entryY=0;entryDx=0;entryDy=0;" edge="1" parent="1" source="O-b6yxpCKCsHz4nW2WA4-7" target="O-b6yxpCKCsHz4nW2WA4-2">
          <mxGeometry relative="1" as="geometry" />
        </mxCell>
        <mxCell id="O-b6yxpCKCsHz4nW2WA4-7" value="饿了么" style="rounded=1;whiteSpace=wrap;html=1;fillColor=#dae8fc;strokeColor=#6c8ebf;gradientColor=#7ea6e0;" vertex="1" parent="1">
          <mxGeometry x="200" y="30" width="120" height="60" as="geometry" />
        </mxCell>
        <mxCell id="O-b6yxpCKCsHz4nW2WA4-11" style="edgeStyle=none;rounded=0;orthogonalLoop=1;jettySize=auto;html=1;exitX=0.5;exitY=1;exitDx=0;exitDy=0;" edge="1" parent="1" source="O-b6yxpCKCsHz4nW2WA4-8" target="O-b6yxpCKCsHz4nW2WA4-2">
          <mxGeometry relative="1" as="geometry" />
        </mxCell>
        <mxCell id="O-b6yxpCKCsHz4nW2WA4-8" value="饿百" style="rounded=1;whiteSpace=wrap;html=1;fillColor=#e6d0de;gradientColor=#d5739d;strokeColor=#996185;" vertex="1" parent="1">
          <mxGeometry x="370" y="30" width="120" height="60" as="geometry" />
        </mxCell>
        <mxCell id="O-b6yxpCKCsHz4nW2WA4-10" style="edgeStyle=none;rounded=0;orthogonalLoop=1;jettySize=auto;html=1;exitX=0.5;exitY=1;exitDx=0;exitDy=0;" edge="1" parent="1" source="O-b6yxpCKCsHz4nW2WA4-9" target="O-b6yxpCKCsHz4nW2WA4-2">
          <mxGeometry relative="1" as="geometry" />
        </mxCell>
        <mxCell id="O-b6yxpCKCsHz4nW2WA4-9" value="京东到家" style="rounded=1;whiteSpace=wrap;html=1;fillColor=#f8cecc;gradientColor=#ea6b66;strokeColor=#b85450;" vertex="1" parent="1">
          <mxGeometry x="540" y="30" width="120" height="60" as="geometry" />
        </mxCell>
      </root>
    </mxGraphModel>
  </diagram>
  <diagram id="K1Txv_NTk05DTRFHSf7i" name="第 2 页">
    <mxGraphModel dx="946" dy="687" grid="1" gridSize="10" guides="1" tooltips="1" connect="1" arrows="1" fold="1" page="1" pageScale="1" pageWidth="827" pageHeight="1169" math="0" shadow="0">
      <root>
        <mxCell id="tYX4LYO8nZVOiCuhqoAW-0" />
        <mxCell id="tYX4LYO8nZVOiCuhqoAW-1" parent="tYX4LYO8nZVOiCuhqoAW-0" />
        <mxCell id="OKglcHFDlmi0qUT0LrZT-15" value="接单数据流" style="swimlane;childLayout=stackLayout;horizontal=1;fillColor=none;horizontalStack=1;resizeParent=1;resizeParentMax=0;resizeLast=0;collapsible=0;strokeColor=none;stackBorder=10;stackSpacing=-12;resizable=1;align=center;points=[];fontColor=#000000;" vertex="1" parent="tYX4LYO8nZVOiCuhqoAW-1">
          <mxGeometry x="60" y="500" width="296" height="100" as="geometry" />
        </mxCell>
        <mxCell id="OKglcHFDlmi0qUT0LrZT-16" value="三方平台回调" style="shape=step;perimeter=stepPerimeter;fixedSize=1;points=[];fillColor=#f8cecc;gradientColor=#ea6b66;strokeColor=#b85450;" vertex="1" parent="OKglcHFDlmi0qUT0LrZT-15">
          <mxGeometry x="10" y="33" width="100" height="57" as="geometry" />
        </mxCell>
        <mxCell id="OKglcHFDlmi0qUT0LrZT-17" value="聚合接单" style="shape=step;perimeter=stepPerimeter;fixedSize=1;points=[];fillColor=#d5e8d4;gradientColor=#97d077;strokeColor=#82b366;" vertex="1" parent="OKglcHFDlmi0qUT0LrZT-15">
          <mxGeometry x="98" y="33" width="100" height="57" as="geometry" />
        </mxCell>
        <mxCell id="OKglcHFDlmi0qUT0LrZT-18" value="数据格式化" style="shape=step;perimeter=stepPerimeter;fixedSize=1;points=[];fillColor=#f5f5f5;gradientColor=#b3b3b3;strokeColor=#666666;" vertex="1" parent="OKglcHFDlmi0qUT0LrZT-15">
          <mxGeometry x="186" y="33" width="100" height="57" as="geometry" />
        </mxCell>
        <mxCell id="6gqjXQ_BsJTxTuVqId8v-0" value="" style="shape=curlyBracket;whiteSpace=wrap;html=1;rounded=1;" vertex="1" parent="tYX4LYO8nZVOiCuhqoAW-1">
          <mxGeometry x="356" y="440" width="40" height="240" as="geometry" />
        </mxCell>
        <mxCell id="6gqjXQ_BsJTxTuVqId8v-1" value="订单消息" style="shape=step;perimeter=stepPerimeter;fixedSize=1;points=[];fillColor=#d5e8d4;strokeColor=#82b366;" vertex="1" parent="tYX4LYO8nZVOiCuhqoAW-1">
          <mxGeometry x="400" y="430" width="100" height="57" as="geometry" />
        </mxCell>
        <mxCell id="6gqjXQ_BsJTxTuVqId8v-2" value="配送单消息" style="shape=step;perimeter=stepPerimeter;fixedSize=1;points=[];fillColor=#ffe6cc;strokeColor=#d79b00;" vertex="1" parent="tYX4LYO8nZVOiCuhqoAW-1">
          <mxGeometry x="400" y="521.5" width="100" height="57" as="geometry" />
        </mxCell>
        <mxCell id="6gqjXQ_BsJTxTuVqId8v-3" value="退款单消息" style="shape=step;perimeter=stepPerimeter;fixedSize=1;points=[];fillColor=#f8cecc;strokeColor=#b85450;" vertex="1" parent="tYX4LYO8nZVOiCuhqoAW-1">
          <mxGeometry x="400" y="623" width="100" height="57" as="geometry" />
        </mxCell>
        <mxCell id="6gqjXQ_BsJTxTuVqId8v-4" value="业务方统一处理" style="shape=step;perimeter=stepPerimeter;fixedSize=1;points=[];fillColor=#e1d5e7;strokeColor=#9673a6;" vertex="1" parent="tYX4LYO8nZVOiCuhqoAW-1">
          <mxGeometry x="550" y="521.5" width="100" height="57" as="geometry" />
        </mxCell>
        <mxCell id="6gqjXQ_BsJTxTuVqId8v-5" value="" style="shape=curlyBracket;whiteSpace=wrap;html=1;rounded=1;direction=west;" vertex="1" parent="tYX4LYO8nZVOiCuhqoAW-1">
          <mxGeometry x="500" y="430" width="40" height="240" as="geometry" />
        </mxCell>
      </root>
    </mxGraphModel>
  </diagram>
  <diagram id="L_cAmKKat6nTEHs5fu1s" name="第 3 页">
    <mxGraphModel dx="946" dy="687" grid="1" gridSize="10" guides="1" tooltips="1" connect="1" arrows="1" fold="1" page="1" pageScale="1" pageWidth="827" pageHeight="1169" math="0" shadow="0">
      <root>
        <mxCell id="W3Upz3TgslrYSIfKeswb-0" />
        <mxCell id="W3Upz3TgslrYSIfKeswb-1" parent="W3Upz3TgslrYSIfKeswb-0" />
        <mxCell id="W3Upz3TgslrYSIfKeswb-43" value="" style="shape=umlLifeline;participant=umlActor;perimeter=lifelinePerimeter;whiteSpace=wrap;html=1;container=1;collapsible=0;recursiveResize=0;verticalAlign=top;spacingTop=36;outlineConnect=0;" vertex="1" parent="W3Upz3TgslrYSIfKeswb-1">
          <mxGeometry x="100" y="60" width="20" height="710" as="geometry" />
        </mxCell>
        <mxCell id="W3Upz3TgslrYSIfKeswb-50" value="" style="html=1;points=[];perimeter=orthogonalPerimeter;" vertex="1" parent="W3Upz3TgslrYSIfKeswb-43">
          <mxGeometry x="5" y="97.5" width="10" height="65" as="geometry" />
        </mxCell>
        <mxCell id="W3Upz3TgslrYSIfKeswb-44" value="socket-center" style="shape=umlLifeline;perimeter=lifelinePerimeter;whiteSpace=wrap;html=1;container=1;collapsible=0;recursiveResize=0;outlineConnect=0;" vertex="1" parent="W3Upz3TgslrYSIfKeswb-1">
          <mxGeometry x="220" y="60" width="100" height="710" as="geometry" />
        </mxCell>
        <mxCell id="W3Upz3TgslrYSIfKeswb-49" value="" style="html=1;points=[];perimeter=orthogonalPerimeter;" vertex="1" parent="W3Upz3TgslrYSIfKeswb-44">
          <mxGeometry x="45" y="90" width="10" height="80" as="geometry" />
        </mxCell>
        <mxCell id="W3Upz3TgslrYSIfKeswb-76" value="" style="ellipse;html=1;shape=endState;fillColor=#000000;strokeColor=#ff0000;" vertex="1" parent="W3Upz3TgslrYSIfKeswb-44">
          <mxGeometry y="340" width="30" height="30" as="geometry" />
        </mxCell>
        <mxCell id="W3Upz3TgslrYSIfKeswb-45" value="socket-center-message" style="shape=umlLifeline;perimeter=lifelinePerimeter;whiteSpace=wrap;html=1;container=1;collapsible=0;recursiveResize=0;outlineConnect=0;" vertex="1" parent="W3Upz3TgslrYSIfKeswb-1">
          <mxGeometry x="400" y="60" width="100" height="710" as="geometry" />
        </mxCell>
        <mxCell id="W3Upz3TgslrYSIfKeswb-46" value="" style="html=1;points=[];perimeter=orthogonalPerimeter;" vertex="1" parent="W3Upz3TgslrYSIfKeswb-45">
          <mxGeometry x="45" y="70" width="10" height="110" as="geometry" />
        </mxCell>
        <mxCell id="W3Upz3TgslrYSIfKeswb-51" value="消息下发" style="html=1;verticalAlign=bottom;endArrow=block;rounded=0;" edge="1" parent="W3Upz3TgslrYSIfKeswb-1" target="W3Upz3TgslrYSIfKeswb-44">
          <mxGeometry width="80" relative="1" as="geometry">
            <mxPoint x="450" y="160" as="sourcePoint" />
            <mxPoint x="420" y="190" as="targetPoint" />
          </mxGeometry>
        </mxCell>
        <mxCell id="W3Upz3TgslrYSIfKeswb-52" value="消息下发" style="html=1;verticalAlign=bottom;endArrow=block;rounded=0;entryX=1;entryY=0.223;entryDx=0;entryDy=0;entryPerimeter=0;" edge="1" parent="W3Upz3TgslrYSIfKeswb-1" source="W3Upz3TgslrYSIfKeswb-49" target="W3Upz3TgslrYSIfKeswb-50">
          <mxGeometry width="80" relative="1" as="geometry">
            <mxPoint x="300.5" y="130" as="sourcePoint" />
            <mxPoint x="120" y="130" as="targetPoint" />
          </mxGeometry>
        </mxCell>
        <mxCell id="W3Upz3TgslrYSIfKeswb-53" value="打印机正常，提交消息" style="html=1;verticalAlign=bottom;endArrow=block;rounded=0;exitX=0.9;exitY=0.623;exitDx=0;exitDy=0;exitPerimeter=0;" edge="1" parent="W3Upz3TgslrYSIfKeswb-1" source="W3Upz3TgslrYSIfKeswb-50" target="W3Upz3TgslrYSIfKeswb-44">
          <mxGeometry width="80" relative="1" as="geometry">
            <mxPoint x="310" y="320.005" as="sourcePoint" />
            <mxPoint x="160" y="320.005" as="targetPoint" />
          </mxGeometry>
        </mxCell>
        <mxCell id="W3Upz3TgslrYSIfKeswb-54" value="提交消息" style="html=1;verticalAlign=bottom;endArrow=block;rounded=0;entryX=0.5;entryY=0.909;entryDx=0;entryDy=0;entryPerimeter=0;" edge="1" parent="W3Upz3TgslrYSIfKeswb-1" source="W3Upz3TgslrYSIfKeswb-49" target="W3Upz3TgslrYSIfKeswb-46">
          <mxGeometry width="80" relative="1" as="geometry">
            <mxPoint x="330" y="220" as="sourcePoint" />
            <mxPoint x="390" y="230" as="targetPoint" />
          </mxGeometry>
        </mxCell>
        <mxCell id="W3Upz3TgslrYSIfKeswb-69" value="" style="html=1;points=[];perimeter=orthogonalPerimeter;" vertex="1" parent="W3Upz3TgslrYSIfKeswb-1">
          <mxGeometry x="105" y="357.5" width="10" height="65" as="geometry" />
        </mxCell>
        <mxCell id="W3Upz3TgslrYSIfKeswb-70" value="" style="html=1;points=[];perimeter=orthogonalPerimeter;" vertex="1" parent="W3Upz3TgslrYSIfKeswb-1">
          <mxGeometry x="265" y="350" width="10" height="80" as="geometry" />
        </mxCell>
        <mxCell id="W3Upz3TgslrYSIfKeswb-71" value="" style="html=1;points=[];perimeter=orthogonalPerimeter;" vertex="1" parent="W3Upz3TgslrYSIfKeswb-1">
          <mxGeometry x="445" y="330" width="10" height="110" as="geometry" />
        </mxCell>
        <mxCell id="W3Upz3TgslrYSIfKeswb-72" value="消息下发" style="html=1;verticalAlign=bottom;endArrow=block;rounded=0;" edge="1" parent="W3Upz3TgslrYSIfKeswb-1">
          <mxGeometry width="80" relative="1" as="geometry">
            <mxPoint x="450" y="360" as="sourcePoint" />
            <mxPoint x="269.5" y="360" as="targetPoint" />
          </mxGeometry>
        </mxCell>
        <mxCell id="W3Upz3TgslrYSIfKeswb-73" value="消息下发" style="html=1;verticalAlign=bottom;endArrow=block;rounded=0;entryX=1;entryY=0.223;entryDx=0;entryDy=0;entryPerimeter=0;" edge="1" parent="W3Upz3TgslrYSIfKeswb-1" source="W3Upz3TgslrYSIfKeswb-70" target="W3Upz3TgslrYSIfKeswb-69">
          <mxGeometry width="80" relative="1" as="geometry">
            <mxPoint x="300.5" y="330" as="sourcePoint" />
            <mxPoint x="120" y="330" as="targetPoint" />
          </mxGeometry>
        </mxCell>
        <mxCell id="W3Upz3TgslrYSIfKeswb-77" value="打印机未连接" style="html=1;verticalAlign=bottom;endArrow=block;rounded=0;" edge="1" parent="W3Upz3TgslrYSIfKeswb-1" source="W3Upz3TgslrYSIfKeswb-69" target="W3Upz3TgslrYSIfKeswb-76">
          <mxGeometry width="80" relative="1" as="geometry">
            <mxPoint x="60" y="460.0049999999999" as="sourcePoint" />
            <mxPoint x="-90" y="460.0049999999999" as="targetPoint" />
          </mxGeometry>
        </mxCell>
        <mxCell id="W3Upz3TgslrYSIfKeswb-79" value="正常场景" style="text;html=1;strokeColor=none;fillColor=none;align=center;verticalAlign=middle;whiteSpace=wrap;rounded=0;" vertex="1" parent="W3Upz3TgslrYSIfKeswb-1">
          <mxGeometry x="10" y="170" width="60" height="30" as="geometry" />
        </mxCell>
        <mxCell id="W3Upz3TgslrYSIfKeswb-80" value="异常场景" style="text;html=1;strokeColor=none;fillColor=none;align=center;verticalAlign=middle;whiteSpace=wrap;rounded=0;" vertex="1" parent="W3Upz3TgslrYSIfKeswb-1">
          <mxGeometry x="20" y="370" width="60" height="30" as="geometry" />
        </mxCell>
      </root>
    </mxGraphModel>
  </diagram>
</mxfile>
